REM DIRINDEX 1\2\5,1\2\6,1\2\7,1\2\8,1\3\9,1\3\10,1\3\11,1\4\12,1\4\13,1\4\14,1\4\15,1\4\16
REM DIRNAME folder01,folder02,folder03,folder04,folder05,folder06,folder07,folder08,folder09,folder10,folder11,folder12,folder13,folder14,folder15,folder16
TITLE ""
FILE "1200_2_sec05_1514_1527.mp3" MP3
  TRACK 01 AUDIO
    TITLE "0:"
    INDEX 01 00:00:00
  TRACK 02 AUDIO
    TITLE "11:cjc034_03144"
    INDEX 01 00:00:15
  TRACK 03 AUDIO
    TITLE "0:"
    INDEX 01 00:02:02
  TRACK 04 AUDIO
    TITLE "10:cjc034_03145"
    INDEX 01 00:03:06
  TRACK 05 AUDIO
    TITLE "0:"
    INDEX 01 00:04:03
  TRACK 06 AUDIO
    TITLE "9:cjc034_03146"
    INDEX 01 00:04:15
  TRACK 07 AUDIO
    TITLE "0:"
    INDEX 01 00:05:28
  TRACK 08 AUDIO
    TITLE "10:cjc034_03147"
    INDEX 01 00:06:10
  TRACK 09 AUDIO
    TITLE "0:"
    INDEX 01 00:07:19
  TRACK 10 AUDIO
    TITLE "9:cjc034_03148"
    INDEX 01 00:07:23
  TRACK 11 AUDIO
    TITLE "0:"
    INDEX 01 00:08:42
  TRACK 12 AUDIO
    TITLE "10:cjc034_03149"
    INDEX 01 00:09:24
  TRACK 13 AUDIO
    TITLE "0:"
    INDEX 01 00:11:27
  TRACK 14 AUDIO
    TITLE "9:cjc034_03150"
    INDEX 01 00:11:33
  TRACK 15 AUDIO
    TITLE "0:"
    INDEX 01 00:12:60
  TRACK 16 AUDIO
    TITLE "10:cjc034_03151"
    INDEX 01 00:13:41
  TRACK 17 AUDIO
    TITLE "0:"
    INDEX 01 00:14:66
  TRACK 18 AUDIO
    TITLE "9:cjc034_03152"
    INDEX 01 00:14:74
  TRACK 19 AUDIO
    TITLE "0:"
    INDEX 01 00:16:18
  TRACK 20 AUDIO
    TITLE "10:cjc034_03153"
    INDEX 01 00:17:04
  TRACK 21 AUDIO
    TITLE "0:"
    INDEX 01 00:18:21
  TRACK 22 AUDIO
    TITLE "9:cjc034_03154"
    INDEX 01 00:18:25
  TRACK 23 AUDIO
    TITLE "0:"
    INDEX 01 00:19:46
  TRACK 24 AUDIO
    TITLE "10:cjc034_03155"
    INDEX 01 00:20:26
  TRACK 25 AUDIO
    TITLE "0:"
    INDEX 01 00:22:42
  TRACK 26 AUDIO
    TITLE "9:cjc034_03156"
    INDEX 01 00:22:44
  TRACK 27 AUDIO
    TITLE "0:"
    INDEX 01 00:23:57
  TRACK 28 AUDIO
    TITLE "10:cjc034_03157"
    INDEX 01 00:24:39
  TRACK 29 AUDIO
    TITLE "0:"
    INDEX 01 00:25:52
  TRACK 30 AUDIO
    TITLE "9:cjc034_03158"
    INDEX 01 00:25:54
  TRACK 31 AUDIO
    TITLE "0:"
    INDEX 01 00:27:00
  TRACK 32 AUDIO
    TITLE "10:cjc034_03159"
    INDEX 01 00:27:51
  TRACK 33 AUDIO
    TITLE "0:"
    INDEX 01 00:29:03
  TRACK 34 AUDIO
    TITLE "9:cjc034_03160"
    INDEX 01 00:29:09
  TRACK 35 AUDIO
    TITLE "0:"
    INDEX 01 00:30:42
  TRACK 36 AUDIO
    TITLE "10:cjc034_03161"
    INDEX 01 00:31:26
  TRACK 37 AUDIO
    TITLE "0:"
    INDEX 01 00:33:73
  TRACK 38 AUDIO
    TITLE "9:cjc034_03162"
    INDEX 01 00:34:04
  TRACK 39 AUDIO
    TITLE "0:"
    INDEX 01 00:35:21
  TRACK 40 AUDIO
    TITLE "10:cjc034_03163"
    INDEX 01 00:36:03
  TRACK 41 AUDIO
    TITLE "0:"
    INDEX 01 00:37:18
  TRACK 42 AUDIO
    TITLE "9:cjc034_03164"
    INDEX 01 00:37:28
  TRACK 43 AUDIO
    TITLE "0:"
    INDEX 01 00:38:39
  TRACK 44 AUDIO
    TITLE "10:cjc034_03165"
    INDEX 01 00:39:23
  TRACK 45 AUDIO
    TITLE "0:"
    INDEX 01 00:40:32
  TRACK 46 AUDIO
    TITLE "9:cjc034_03166"
    INDEX 01 00:40:38
  TRACK 47 AUDIO
    TITLE "0:"
    INDEX 01 00:41:51
  TRACK 48 AUDIO
    TITLE "10:cjc034_03167"
    INDEX 01 00:42:33
  TRACK 49 AUDIO
    TITLE "0:"
    INDEX 01 00:45:04
  TRACK 50 AUDIO
    TITLE "9:cjc034_03168"
    INDEX 01 00:45:08
  TRACK 51 AUDIO
    TITLE "0:"
    INDEX 01 00:46:13
  TRACK 52 AUDIO
    TITLE "10:cjc034_03169"
    INDEX 01 00:46:70
  TRACK 53 AUDIO
    TITLE "0:"
    INDEX 01 00:48:08
  TRACK 54 AUDIO
    TITLE "9:cjc034_03170"
    INDEX 01 00:48:18
  TRACK 55 AUDIO
    TITLE "0:"
    INDEX 01 00:49:29
  TRACK 56 AUDIO
    TITLE "10:cjc034_03171"
    INDEX 01 00:50:11
  TRACK 57 AUDIO
    TITLE "0:"
    INDEX 01 00:52:45
  TRACK 58 AUDIO
    TITLE "9:cjc034_03172"
    INDEX 01 00:52:49
  TRACK 59 AUDIO
    TITLE "0:"
    INDEX 01 00:53:62
